<mxfile host="Electron" modified="2024-01-09T11:58:07.482Z" agent="Mozilla/5.0 (Windows NT 10.0; Win64; x64) AppleWebKit/537.36 (KHTML, like Gecko) draw.io/21.6.8 Chrome/114.0.5735.289 Electron/25.5.0 Safari/537.36" etag="AcmM5fbD5_il-IVT71bU" version="21.6.8" type="device">
  <diagram name="Page-1" id="OFJM7V-xodq8CG4FgT4N">
    <mxGraphModel dx="1036" dy="614" grid="1" gridSize="10" guides="1" tooltips="1" connect="1" arrows="1" fold="1" page="1" pageScale="1" pageWidth="850" pageHeight="1100" math="0" shadow="0">
      <root>
        <mxCell id="0" />
        <mxCell id="1" parent="0" />
        <mxCell id="GK5NCBHF9g9axfspYK10-67" value="" style="rounded=0;whiteSpace=wrap;html=1;fillColor=none;movable=1;resizable=1;rotatable=1;deletable=1;editable=1;locked=0;connectable=1;strokeColor=none;" parent="1" vertex="1">
          <mxGeometry x="40" y="170" width="760" height="600" as="geometry" />
        </mxCell>
        <mxCell id="GK5NCBHF9g9axfspYK10-1" value="System Admin" style="shape=umlActor;verticalLabelPosition=bottom;verticalAlign=top;html=1;outlineConnect=0;movable=1;resizable=1;rotatable=1;deletable=1;editable=1;locked=0;connectable=1;" parent="1" vertex="1">
          <mxGeometry x="90" y="350" width="30" height="60" as="geometry" />
        </mxCell>
        <mxCell id="GK5NCBHF9g9axfspYK10-15" value="" style="rounded=0;whiteSpace=wrap;html=1;movable=0;resizable=0;rotatable=0;deletable=0;editable=0;locked=1;connectable=0;" parent="1" vertex="1">
          <mxGeometry x="160" y="200" width="520" height="520" as="geometry" />
        </mxCell>
        <mxCell id="gvZjyx77qGyK2Q88v1IP-8" value="Delete&amp;nbsp;Account" style="ellipse;whiteSpace=wrap;html=1;movable=1;resizable=1;rotatable=1;deletable=1;editable=1;locked=0;connectable=1;" parent="1" vertex="1">
          <mxGeometry x="315" y="560" width="110" height="40" as="geometry" />
        </mxCell>
        <mxCell id="1Al-hQzrkB7MnHjv1-7x-1" value="" style="endArrow=none;html=1;rounded=0;entryX=0;entryY=0.5;entryDx=0;entryDy=0;exitX=1;exitY=0.3333333333333333;exitDx=0;exitDy=0;exitPerimeter=0;" parent="1" source="GK5NCBHF9g9axfspYK10-1" target="vVI_RfQ196cqgTaVpU66-2" edge="1">
          <mxGeometry width="50" height="50" relative="1" as="geometry">
            <mxPoint x="130" y="370" as="sourcePoint" />
            <mxPoint x="370" y="370" as="targetPoint" />
          </mxGeometry>
        </mxCell>
        <mxCell id="vVI_RfQ196cqgTaVpU66-1" value="Edit Account" style="ellipse;whiteSpace=wrap;html=1;movable=1;resizable=1;rotatable=1;deletable=1;editable=1;locked=0;connectable=1;" parent="1" vertex="1">
          <mxGeometry x="315" y="400" width="110" height="40" as="geometry" />
        </mxCell>
        <mxCell id="vVI_RfQ196cqgTaVpU66-2" value="Add Account" style="ellipse;whiteSpace=wrap;html=1;movable=1;resizable=1;rotatable=1;deletable=1;editable=1;locked=0;connectable=1;" parent="1" vertex="1">
          <mxGeometry x="315" y="250" width="110" height="40" as="geometry" />
        </mxCell>
        <mxCell id="vVI_RfQ196cqgTaVpU66-3" value="" style="endArrow=none;html=1;rounded=0;exitX=0;exitY=0.5;exitDx=0;exitDy=0;" parent="1" source="vVI_RfQ196cqgTaVpU66-1" edge="1">
          <mxGeometry width="50" height="50" relative="1" as="geometry">
            <mxPoint x="370" y="470" as="sourcePoint" />
            <mxPoint x="120" y="370" as="targetPoint" />
          </mxGeometry>
        </mxCell>
        <mxCell id="vVI_RfQ196cqgTaVpU66-4" value="" style="endArrow=none;html=1;rounded=0;exitX=0;exitY=0.5;exitDx=0;exitDy=0;" parent="1" source="gvZjyx77qGyK2Q88v1IP-8" edge="1">
          <mxGeometry width="50" height="50" relative="1" as="geometry">
            <mxPoint x="70" y="420" as="sourcePoint" />
            <mxPoint x="120" y="370" as="targetPoint" />
          </mxGeometry>
        </mxCell>
        <mxCell id="vVI_RfQ196cqgTaVpU66-5" value="Register&amp;nbsp;Account" style="ellipse;whiteSpace=wrap;html=1;movable=1;resizable=1;rotatable=1;deletable=1;editable=1;locked=0;connectable=1;" parent="1" vertex="1">
          <mxGeometry x="480" y="270" width="110" height="40" as="geometry" />
        </mxCell>
        <mxCell id="vVI_RfQ196cqgTaVpU66-6" value="&amp;lt;&amp;lt;include&amp;gt;&amp;gt;" style="html=1;verticalAlign=bottom;labelBackgroundColor=none;endArrow=open;endFill=0;dashed=1;rounded=0;exitX=1;exitY=0.5;exitDx=0;exitDy=0;entryX=0;entryY=0;entryDx=0;entryDy=0;" parent="1" source="vVI_RfQ196cqgTaVpU66-2" target="vVI_RfQ196cqgTaVpU66-5" edge="1">
          <mxGeometry x="0.2649" y="13" width="160" relative="1" as="geometry">
            <mxPoint x="350" y="500" as="sourcePoint" />
            <mxPoint x="540" y="310" as="targetPoint" />
            <mxPoint as="offset" />
          </mxGeometry>
        </mxCell>
        <mxCell id="vVI_RfQ196cqgTaVpU66-9" value="Edit Account Info" style="ellipse;whiteSpace=wrap;html=1;movable=1;resizable=1;rotatable=1;deletable=1;editable=1;locked=0;connectable=1;" parent="1" vertex="1">
          <mxGeometry x="500" y="500" width="110" height="40" as="geometry" />
        </mxCell>
        <mxCell id="vVI_RfQ196cqgTaVpU66-11" value="&amp;lt;&amp;lt;include&amp;gt;&amp;gt;" style="html=1;verticalAlign=bottom;labelBackgroundColor=none;endArrow=open;endFill=0;dashed=1;rounded=0;entryX=0;entryY=0;entryDx=0;entryDy=0;" parent="1" source="vVI_RfQ196cqgTaVpU66-1" target="vVI_RfQ196cqgTaVpU66-9" edge="1">
          <mxGeometry x="0.3265" y="10" width="160" relative="1" as="geometry">
            <mxPoint x="450.0000000000001" y="443.7999999999999" as="sourcePoint" />
            <mxPoint x="526.6" y="476.2" as="targetPoint" />
            <mxPoint as="offset" />
          </mxGeometry>
        </mxCell>
      </root>
    </mxGraphModel>
  </diagram>
</mxfile>
